HIERARCHY
ROOT Hips
{
	OFFSET 0.000000 0.000000 0.000000 
	CHANNELS 6 Xposition Yposition Zposition Yrotation Zrotation Xrotation 
	JOINT Lumbar
	{
		OFFSET 0.000000 0.000000 0.000000 
		CHANNELS 3 Zrotation Xrotation Yrotation
		JOINT Neck
		{
			OFFSET 0.000000 0.445665 0.000000 
			CHANNELS 3 Zrotation Xrotation Yrotation
			End Site
			{
				OFFSET 0.000000 0.227535 0.000000 
			}
		}
		JOINT RightShoulder
		{
			OFFSET 0.019635 0.377685 0.194865 
			CHANNELS 3 Zrotation Xrotation Yrotation
			JOINT RightElbow
			{
				OFFSET 0.000000 -0.243375 0.000000 
				CHANNELS 2 Zrotation Yrotation
				JOINT RightWrist
				{
					OFFSET 0.000000 -0.264825 0.000000 
					CHANNELS 2 Zrotation Xrotation
					End Site
					{
						OFFSET 0.006600 -0.176220 0.000990 
					}
				}
			}
		}
		JOINT LeftShoulder
		{
			OFFSET 0.019635 0.377685 -0.194865 
			CHANNELS 3 Zrotation Xrotation Yrotation
			JOINT LeftElbow
			{
				OFFSET 0.000000 -0.243375 0.000000 
				CHANNELS 2 Zrotation Yrotation
				JOINT LeftWrist
				{
					OFFSET 0.000000 -0.264825 0.000000 
					CHANNELS 2 Zrotation Xrotation
					End Site
					{
						OFFSET 0.006600 -0.176220 -0.000990 
					}
				}
			}
		}
	}
	JOINT RightHip
	{
		OFFSET 0.052140 -0.069960 0.075570 
		CHANNELS 3 Zrotation Xrotation Yrotation
		JOINT RightKnee
		{
			OFFSET 0.000000 -0.402270 0.000000 
			CHANNELS 1 Zrotation
			JOINT RightAnkle
			{
				OFFSET 0.000000 -0.404085 0.000000 
				CHANNELS 3 Zrotation Xrotation Yrotation
				End Site
				{
					OFFSET 0.204105 -0.089430 0.008415 
				}
			}
		}
	}
	JOINT LeftHip
	{
		OFFSET 0.052140 -0.069960 -0.075570 
		CHANNELS 3 Zrotation Xrotation Yrotation
		JOINT LeftKnee
		{
			OFFSET 0.000000 -0.402270 0.000000 
			CHANNELS 1 Zrotation
			JOINT LeftAnkle
			{
				OFFSET 0.000000 -0.404085 0.000000 
				CHANNELS 3 Zrotation Xrotation Yrotation
				End Site
				{
					OFFSET 0.204105 -0.089430 -0.008415 
				}
			}
		}
	}
}
MOTION
Frames: 28
Frame Time: 0.02
0.00121 0.00028 0.00077 -176.5981 -32.33423 5.6077 40.32284 -2.27074 -4.30747 5.37842 -4.57311 -0.23358 -0.10417 -14.62168 12.56682 37.5263 93.96824 6.45066 1.08703 10.11737 8.48709 -8.15664 35.06354 -95.15406 7.5492 -0.77247 53.02751 -13.21834 0.57802 -42.9773 -6.60747 -4.45477 -3.00222 41.0884 -5.1137 15.86642 -27.11456 -5.58781 2.62682 1.91386
0.00186 0.00025 0.00091 -176.56485 -32.3543 5.60029 40.33511 -2.28827 -4.19954 5.16287 -4.52283 -0.23441 -0.92621 -14.83974 12.35543 37.63063 93.8916 6.38481 1.09396 8.96642 8.58398 -7.2921 34.64068 -94.81788 7.33152 -0.79981 53.08498 -13.19036 0.66587 -42.97608 -6.62158 -4.46435 -3.00801 41.15871 -5.10047 15.90347 -27.13747 -5.59214 2.61452 1.90902
0.00251 0.00022 0.00104 -176.53163 -32.37446 5.59272 40.34738 -2.3057 -4.09185 4.94764 -4.47248 -0.23523 -1.74748 -15.05729 12.1436 37.73444 93.81507 6.31902 1.10088 7.81659 8.68041 -6.42786 34.21891 -94.49049 7.11658 -0.82822 53.14225 -13.16237 0.75313 -42.97457 -6.63564 -4.47388 -3.01376 41.22901 -5.0871 15.94022 -27.16029 -5.59647 2.60223 1.9042
0.00316 0.00018 0.00118 -176.49847 -32.39448 5.58532 40.35962 -2.32317 -3.98423 4.7327 -4.42232 -0.23605 -2.56723 -15.27471 11.93271 37.83842 93.73865 6.25335 1.10779 6.66887 8.77695 -5.56548 33.79727 -94.15715 6.90006 -0.85573 53.19953 -13.13449 0.84066 -42.97333 -6.6497 -4.48343 -3.01954 41.29913 -5.0739 15.9771 -27.18314 -5.60079 2.58997 1.89939
0.00381 0.00015 0.00131 -176.4653 -32.41438 5.57811 40.37186 -2.34074 -3.87639 4.51755 -4.3723 -0.23687 -3.3872 -15.49256 11.72259 37.94302 93.66215 6.18766 1.1147 5.52072 8.87407 -4.704 33.37474 -93.8106 6.67963 -0.88152 53.25702 -13.1066 0.92891 -42.97244 -6.66382 -4.49303 -3.02534 41.36921 -5.06085 16.0144 -27.20607 -5.6051 2.57768 1.89456
0.00446 0.00012 0.00144 -176.43198 -32.4351 5.56974 40.38421 -2.35787 -3.76901 4.30219 -4.32123 -0.23769 -4.21124 -15.70945 11.50717 38.04517 93.58557 6.12168 1.12166 4.36735 8.9691 -3.83423 32.95468 -93.52261 6.47599 -0.9153 53.31382 -13.07838 1.01406 -42.96959 -6.67775 -4.50237 -3.03098 41.43998 -5.04677 16.05001 -27.22866 -5.60948 2.56541 1.88976
0.00512 8e-05 0.00158 -176.39899 -32.45406 5.56383 40.39627 -2.37591 -3.66085 4.0875 -4.2724 -0.23851 -5.02583 -15.92808 11.30282 38.15211 93.50925 6.05635 1.12852 3.22628 9.068 -2.98122 32.52977 -93.12125 6.23991 -0.93357 53.37194 -13.05099 1.10538 -42.97083 -6.69205 -4.51227 -3.03696 41.50921 -5.03493 16.08884 -27.25194 -5.6137 2.55313 1.88491
0.00577 5e-05 0.00172 -176.36572 -32.47481 5.55548 40.40869 -2.39304 -3.55339 3.8722 -4.22138 -0.23933 -5.84976 -16.145 11.08794 38.25465 93.4327 5.99046 1.13546 2.07292 9.16375 -2.11438 32.10999 -92.81687 6.03169 -0.96504 53.42883 -13.02262 1.19093 -42.96804 -6.70598 -4.52159 -3.04259 41.57998 -5.02077 16.12497 -27.27451 -5.6181 2.54082 1.88009
0.00641 2e-05 0.00184 -176.33199 -32.4971 5.54475 40.42121 -2.40933 -3.44679 3.65595 -4.16811 -0.24015 -6.6833 -16.36038 10.86118 38.35175 93.35574 5.92367 1.14253 0.90741 9.25403 -1.2234 31.69366 -92.66232 5.866 -1.01724 53.4843 -12.99384 1.26976 -42.96131 -6.7196 -4.53047 -3.04796 41.65222 -5.00476 16.15668 -27.29652 -5.62263 2.52862 1.87537
0.00709 -5e-05 0.00202 -176.30055 -32.5086 5.54953 40.43212 -2.43128 -3.33524 3.44452 -4.12905 -0.24098 -7.45617 -16.58627 10.70573 38.47998 93.28075 5.86139 1.14895 -0.17965 9.37091 -0.44948 31.24896 -91.73989 5.48111 -0.96401 53.5482 -12.96979 1.38824 -42.9802 -6.73543 -4.54266 -3.05533 41.71478 -5.00233 16.21045 -27.32269 -5.62612 2.51623 1.87028
0.0077 -1e-05 0.00208 -176.2645 -32.54407 5.52044 40.44711 -2.44075 -3.23414 3.22338 -4.05924 -0.24179 -8.3602 -16.78891 10.39808 38.54264 93.20188 5.79004 1.15669 -1.43736 9.43478 0.55712 30.86965 -92.37654 5.54216 -1.12425 53.59416 -12.93429 1.42246 -42.94318 -6.74631 -4.54736 -3.05817 41.79849 -4.9694 16.21987 -27.33949 -5.63198 2.50398 1.86583
0.00811 0.00031 0.00185 -176.21412 -32.63642 5.40683 40.468 -2.41992 -3.16232 2.97167 -3.91038 -0.24259 -9.60184 -16.93581 9.68278 38.42225 93.11042 5.6901 1.16856 -3.12665 9.32558 2.3281 30.62583 -97.84894 6.9789 -1.95154 53.59164 -12.87847 1.22827 -42.76594 -6.74589 -4.53527 -3.05088 41.93532 -4.86705 16.08675 -27.33497 -5.64303 2.49438 1.86451
0.00844 0.00075 0.0015 -176.15956 -32.75462 5.25756 40.49408 -2.38578 -3.10103 2.71108 -3.72964 -0.24338 -10.97873 -17.05767 8.81298 38.23635 93.01582 5.58185 1.18171 -4.99382 9.16786 4.31023 30.45586 -104.79173 8.83771 -2.97922 53.57099 -12.80879 0.94918 -42.52991 -6.7401 -4.5148 -3.03854 42.09447 -4.73155 15.91182 -27.32013 -5.6567 2.48463 1.86365
0.0088 0.00117 0.00119 -176.10786 -32.86666 5.11927 40.52109 -2.35522 -3.03435 2.45694 -3.56001 -0.24418 -12.30905 -17.186 8.0071 38.08276 92.92342 5.47968 1.19385 -6.80401 9.05087 6.11246 30.28074 -110.68725 10.40106 -3.86069 53.5581 -12.73856 0.70682 -42.31239 -6.73524 -4.4959 -3.02714 42.24642 -4.6017 15.77108 -27.30725 -5.67004 2.47327 1.86159
0.00922 0.00148 0.00097 -176.05158 -32.95467 5.0034 40.53375 -2.33525 -2.96967 2.19197 -3.40462 -0.24496 -13.57919 -17.33585 7.22668 37.91926 92.8261 5.36732 1.20755 -8.51519 8.85657 8.26608 29.98567 -118.15244 12.39282 -4.97077 53.54707 -12.69841 0.47114 -42.13014 -6.73666 -4.48706 -3.02178 42.38533 -4.51096 15.57079 -27.30623 -5.67979 2.46841 1.86341
0.00947 0.00203 0.00053 -176.00448 -33.09949 4.83185 40.57811 -2.2898 -2.90405 1.94824 -3.21197 -0.24577 -15.00369 -17.43388 6.35763 37.75968 92.74037 5.27475 1.21864 -10.47307 8.80973 9.74216 29.95811 -122.73878 13.60483 -5.65795 53.52806 -12.59085 0.20264 -41.85954 -6.72385 -4.45447 -3.00223 42.5575 -4.33161 15.47877 -27.27763 -5.69763 2.4507 1.85764
0.00931 0.00317 -0.00046 -175.97823 -33.38918 4.52013 40.70367 -2.17968 -2.82737 1.75871 -2.92487 -0.24668 -16.84607 -17.40339 5.27125 37.63769 92.67777 5.23681 1.2204 -13.08108 9.20015 9.25645 30.64916 -118.64623 12.45083 -5.07755 53.4892 -12.31343 -0.14601 -41.36705 -6.67232 -4.36565 -2.94846 42.80865 -3.90977 15.7469 -27.17913 -5.73728 2.3915 1.82741
0.00897 0.00454 -0.00167 -175.96226 -33.73606 4.15288 40.86189 -2.04398 -2.75074 1.59211 -2.60147 -0.24761 -18.83374 -17.31952 4.10155 37.52019 92.63437 5.22117 1.22058 -15.92782 9.73731 8.08831 31.60679 -111.67302 10.51771 -4.07383 53.44297 -11.96645 -0.52295 -40.7858 -6.60695 -4.25204 -2.87999 43.09361 -3.40103 16.11639 -27.05254 -5.78496 2.32046 1.79012
0.00869 0.00581 -0.00281 -175.9454 -34.06069 3.80768 41.00845 -1.91834 -2.6776 1.4194 -2.29403 -0.24853 -20.7396 -17.25522 2.97872 37.39325 92.58136 5.19448 1.22174 -18.65837 10.19534 7.25888 32.44423 -106.26206 9.01317 -3.29745 53.40212 -11.64265 -0.88 -40.24071 -6.54826 -4.14472 -2.81565 43.3683 -2.93593 16.40552 -26.93639 -5.82887 2.25887 1.75831
0.00847 0.00704 -0.00383 -175.91302 -34.3711 3.47403 41.14172 -1.79862 -2.58889 1.22822 -1.98692 -0.24947 -22.71985 -17.21196 1.81844 37.29409 92.50892 5.1643 1.21876 -21.43187 10.70405 6.31831 33.28198 -99.83877 7.20938 -2.38139 53.35372 -11.3532 -1.26915 -39.71303 -6.48721 -4.05731 -2.76146 43.62339 -2.4521 16.83613 -26.82974 -5.87337 2.18029 1.71704
0.00809 0.00843 -0.00514 -175.91471 -34.72352 3.10442 41.31038 -1.66093 -2.53384 1.081 -1.67195 -0.25038 -24.57409 -17.10989 0.71091 37.14047 92.51047 5.15566 1.22785 -24.16496 11.14289 5.44177 34.17918 -94.81461 5.83766 -1.65195 53.31743 -10.97683 -1.59774 -39.12651 -6.42853 -3.92368 -2.68327 43.92561 -1.98718 16.99899 -26.69671 -5.91854 2.13404 1.69364
0.00731 0.01021 -0.0072 -176.01463 -35.18493 2.64229 41.56873 -1.47762 -2.56002 1.0503 -1.33568 -0.25121 -26.07577 -16.8833 -0.15913 36.82286 92.4456 5.11971 1.23512 -26.77016 11.3495 4.93599 35.19422 -94.41279 5.85662 -1.55183 53.33418 -10.36892 -1.74528 -38.41865 -6.37377 -3.65981 -2.53767 44.36155 -1.59521 16.37716 -26.49827 -5.96324 2.1821 1.72267
0.00635 0.01215 -0.00955 -176.14729 -35.68507 2.14736 41.86153 -1.27755 -2.62205 1.06294 -0.99461 -0.25201 -27.43859 -16.59637 -0.98117 36.45286 92.49129 5.11608 1.25941 -29.316 11.48029 4.51604 36.25586 -95.50656 6.33572 -1.652 53.35997 -9.67753 -1.8313 -37.65131 -6.32294 -3.35206 -2.36941 44.84128 -1.22565 15.48591 -26.27421 -6.00839 2.26274 1.76971
0.00546 0.01402 -0.01177 -176.26058 -36.16295 1.67207 42.13861 -1.08671 -2.67546 1.05534 -0.66131 -0.25283 -28.84473 -16.319 -1.87709 36.11546 92.67723 5.15588 1.30147 -31.86261 11.64996 4.03303 37.28353 -95.8656 6.59512 -1.65157 53.37028 -9.03008 -1.95016 -36.89875 -6.2744 -3.06998 -2.21461 45.29323 -0.84624 14.73232 -26.06152 -6.05356 2.327 1.80758
0.00465 0.01592 -0.01397 -176.3931 -36.66307 1.17477 42.41726 -0.88828 -2.69708 1.05091 -0.30263 -0.25364 -30.34187 -16.10896 -2.57509 35.74138 92.11263 4.96676 1.24315 -34.53518 11.81149 3.6117 38.37503 -96.33444 6.86474 -1.67355 53.42907 -8.35508 -2.05134 -36.19476 -6.20854 -2.7624 -2.0457 45.78016 -0.46197 13.92003 -25.84891 -6.0981 2.39733 1.84924
0.00362 0.01777 -0.01627 -176.49329 -37.12461 0.71635 42.70023 -0.70186 -2.79267 1.04975 0.00322 -0.25446 -31.61166 -15.75284 -3.64914 35.43079 93.0708 5.24217 1.38872 -36.91955 11.96326 3.11146 39.34057 -96.99599 7.24191 -1.70614 53.38822 -7.71824 -2.17197 -35.37667 -6.17941 -2.49841 -1.90131 46.20352 -0.0948 13.16213 -25.63056 -6.14392 2.46309 1.88753
0.00202 0.01945 -0.01877 -176.49488 -37.47589 0.37316 42.98786 -0.55441 -3.09016 1.04811 0.1669 -0.25533 -32.31012 -14.94054 -5.97903 35.31182 98.78954 6.9647 2.17434 -38.59262 12.16773 2.19468 39.95027 -97.57843 7.72225 -1.68313 53.07788 -7.21067 -2.38294 -34.25865 -6.25489 -2.36053 -1.82747 46.44589 0.23448 12.64258 -25.40167 -6.19325 2.5069 1.91072
0.00021 0.02107 -0.02136 -176.46265 -37.78554 0.07073 43.27823 -0.4195 -3.45949 1.04802 0.27601 -0.25621 -32.77868 -13.99551 -8.65259 35.25767 105.93644 9.12381 3.1506 -39.96211 12.3553 1.22733 40.42954 -98.35611 8.31149 -1.67171 52.6656 -6.74444 -2.61235 -33.02857 -6.36651 -2.26901 -1.77963 46.62153 0.54611 12.18279 -25.16828 -6.24379 2.54527 1.93014
